<svg width="29" height="29" viewBox="0 0 29 29" fill="none" xmlns="http://www.w3.org/2000/svg">
<path d="M14.5147 2.71875C15.4017 2.72897 16.2851 2.83144 17.1507 3.02451C17.5286 3.10879 17.8112 3.42382 17.8541 3.80862L18.0598 5.65356C18.1529 6.50066 18.8681 7.14227 19.7207 7.14316C19.9499 7.14352 20.1766 7.09579 20.3885 7.00209L22.0808 6.25864C22.4328 6.104 22.8441 6.18831 23.1068 6.46896C24.3299 7.77519 25.2408 9.34181 25.771 11.0509C25.8853 11.4195 25.7537 11.82 25.4432 12.0489L23.943 13.1546C23.515 13.469 23.2624 13.9683 23.2624 14.4994C23.2624 15.0303 23.515 15.5296 23.944 15.8448L25.4453 16.9509C25.756 17.1797 25.8877 17.5803 25.7734 17.9489C25.2434 19.6578 24.3331 21.2243 23.1107 22.5307C22.8483 22.8113 22.4373 22.8959 22.0853 22.7416L20.386 21.9971C19.8998 21.7843 19.3416 21.8155 18.882 22.0811C18.4226 22.3466 18.1169 22.8148 18.0585 23.3422L17.8542 25.187C17.812 25.5674 17.5356 25.8803 17.1632 25.9689C15.413 26.3853 13.5895 26.3853 11.8393 25.9689C11.467 25.8803 11.1904 25.5674 11.1483 25.187L10.9443 23.345C10.8844 22.8185 10.5782 22.3517 10.1191 22.0871C9.66004 21.8225 9.10262 21.7914 8.61808 22.003L6.9184 22.7476C6.56635 22.9019 6.15529 22.8173 5.89278 22.5365C4.66975 21.2286 3.75936 19.6602 3.23012 17.9496C3.11612 17.5811 3.24783 17.1808 3.55836 16.9521L5.06072 15.8452C5.48864 15.5308 5.74136 15.0315 5.74136 14.5006C5.74136 13.9695 5.48864 13.4703 5.06015 13.1555L3.55874 12.0505C3.24776 11.8217 3.11593 11.4209 3.23032 11.0521C3.76048 9.34301 4.67135 7.7764 5.89441 6.47017C6.15717 6.18952 6.56843 6.10521 6.92042 6.25984L8.61254 7.00316C9.09943 7.21684 9.65918 7.18457 10.1207 6.91492C10.5803 6.64836 10.8862 6.17968 10.9453 5.65215L11.1508 3.80862C11.1937 3.42363 11.4766 3.10849 11.8547 3.02439C12.7215 2.83163 13.6058 2.7292 14.5147 2.71875ZM14.4996 10.8749C12.4976 10.8749 10.8746 12.4979 10.8746 14.5C10.8746 16.502 12.4976 18.125 14.4996 18.125C16.5016 18.125 18.1246 16.502 18.1246 14.5C18.1246 12.4979 16.5016 10.8749 14.4996 10.8749Z" fill="#212121"/>
</svg>
