<?xml version="1.0" encoding="UTF-8"?>
<!DOCTYPE svg PUBLIC "-//W3C//DTD SVG 1.1//EN" "http://www.w3.org/Graphics/SVG/1.1/DTD/svg11.dtd">
<svg xmlns="http://www.w3.org/2000/svg" version="1.1" width="512px" height="512px" style="shape-rendering:geometricPrecision; text-rendering:geometricPrecision; image-rendering:optimizeQuality; fill-rule:evenodd; clip-rule:evenodd" xmlns:xlink="http://www.w3.org/1999/xlink">
<g><path style="opacity:0.99" fill="#fefffe" d="M 300.5,-0.5 C 318.833,-0.5 337.167,-0.5 355.5,-0.5C 366.35,0.544158 377.35,1.54416 388.5,2.5C 388.5,29.8333 388.5,57.1667 388.5,84.5C 367.811,84.1949 347.144,84.6949 326.5,86C 307.148,89.3536 296.981,100.854 296,120.5C 295.5,142.497 295.333,164.497 295.5,186.5C 325.5,186.5 355.5,186.5 385.5,186.5C 381.669,217.147 378.002,247.814 374.5,278.5C 348.167,278.5 321.833,278.5 295.5,278.5C 295.5,356.167 295.5,433.833 295.5,511.5C 263.833,511.5 232.167,511.5 200.5,511.5C 200.5,433.833 200.5,356.167 200.5,278.5C 174.5,278.5 148.5,278.5 122.5,278.5C 122.5,247.833 122.5,217.167 122.5,186.5C 148.5,186.5 174.5,186.5 200.5,186.5C 200.094,156.81 200.594,127.143 202,97.5C 210.818,40.5154 243.651,7.84875 300.5,-0.5 Z"/></g>
</svg>
