<svg width="17" height="17" viewBox="0 0 17 17" fill="none" xmlns="http://www.w3.org/2000/svg">
<path d="M8.33333 0C12.9358 0 16.6667 3.73167 16.6667 8.33333C16.6667 12.935 12.9358 16.6667 8.33333 16.6667C3.73083 16.6667 0 12.935 0 8.33333C0 3.73167 3.73083 0 8.33333 0ZM8.33333 11.25C7.87308 11.25 7.5 11.6231 7.5 12.0833C7.5 12.5436 7.87308 12.9167 8.33333 12.9167C8.79358 12.9167 9.16667 12.5436 9.16667 12.0833C9.16667 11.6231 8.79358 11.25 8.33333 11.25ZM8.33333 3.95833C7.06767 3.95833 6.04167 4.98435 6.04167 6.25C6.04167 6.59517 6.32149 6.875 6.66667 6.875C6.98308 6.875 7.24458 6.63987 7.286 6.33481L7.29167 6.25C7.29167 5.6747 7.758 5.20833 8.33333 5.20833C8.90867 5.20833 9.375 5.6747 9.375 6.25C9.375 6.699 9.2625 6.92108 8.83758 7.36017L8.72475 7.47475C7.993 8.2065 7.70833 8.68092 7.70833 9.58333C7.70833 9.9285 7.98817 10.2083 8.33333 10.2083C8.6785 10.2083 8.95833 9.9285 8.95833 9.58333C8.95833 9.13433 9.07083 8.91225 9.49575 8.47317L9.60858 8.35858C10.3403 7.62683 10.625 7.15242 10.625 6.25C10.625 4.98435 9.599 3.95833 8.33333 3.95833Z" fill="#ED1B2E"/>
</svg>
