<svg width="98" height="136" viewBox="0 0 98 136" fill="none" xmlns="http://www.w3.org/2000/svg">
<path d="M51.7397 78.0822L82.001 107.636C83.5906 109.188 86.1682 109.188 87.7579 107.636C89.3475 106.083 89.3475 103.566 87.7575 102.014L14.4872 30.4566C12.8975 28.9041 10.3203 28.9041 8.73066 30.4566C7.14102 32.0091 7.14106 34.5262 8.7307 36.0787L21.3364 48.3896C18.7196 50.0951 16.2351 52.0756 13.9256 54.3312C11.935 56.2752 10.0117 58.5721 8.26952 61.0247C6.98808 62.8286 7.4467 65.3057 9.29381 66.5571C11.1409 67.8086 13.6771 67.3606 14.9585 65.5565C16.4379 63.4742 18.0573 61.5402 19.6821 59.9533C22.0066 57.6831 24.5441 55.7477 27.2318 54.1471L31.9227 58.7284C29.4482 60.1176 27.1182 61.8451 25.0034 63.9103C22.4983 66.3572 20.4537 69.1209 18.8826 72.1545C17.868 74.1136 18.6716 76.5052 20.6777 77.4962C22.6837 78.4869 25.1325 77.7021 26.1472 75.7431C27.3305 73.458 28.8669 71.3813 30.76 69.5323C32.909 67.4337 35.3526 65.7978 37.9607 64.6251L43.6902 70.2205C39.8936 71.0561 36.2859 72.9166 33.3305 75.8031C31.4576 77.6322 29.9674 79.8155 28.8927 82.2142C27.9915 84.2258 28.9306 86.5697 30.9901 87.4498C33.0496 88.33 35.4498 87.4128 36.351 85.4013C37.0302 83.8855 37.9544 82.5311 39.087 81.4251C42.5157 78.0766 47.3652 76.9623 51.7397 78.0822ZM46.317 54.5101L55.3871 63.3685C59.2857 64.4756 62.962 66.5305 66.0358 69.5323C67.8437 71.2978 69.4443 73.4886 70.6651 75.819C71.6889 77.7737 74.1411 78.5481 76.1427 77.5483C78.1439 76.5485 78.9369 74.1533 77.9131 72.1986C76.3162 69.1495 74.2201 66.2813 71.7927 63.9103C64.8028 57.084 55.4636 53.9505 46.317 54.5101ZM34.0383 42.518L40.7608 49.0834C53.4107 46.7711 66.9746 50.3944 76.7623 59.9533C78.4737 61.6249 80.1093 63.5577 81.5329 65.572C82.8099 67.3789 85.3451 67.8328 87.1953 66.5858C89.0455 65.3387 89.5099 62.8628 88.2329 61.0558C86.5358 58.6543 84.5867 56.3507 82.5188 54.3312C69.3979 41.5169 50.63 37.5791 34.0383 42.518ZM52.5689 86.7008C54.9552 89.0312 54.9552 92.8098 52.5689 95.1398C50.183 97.4702 46.3142 97.4702 43.9283 95.1398C41.542 92.8098 41.542 89.0312 43.9283 86.7008C46.3142 84.3709 50.183 84.3709 52.5689 86.7008Z" fill="#212121"/>
</svg>
