<svg width="130" height="130" viewBox="0 0 130 130" fill="none" xmlns="http://www.w3.org/2000/svg">
<path d="M95.234 59.5864C98.454 62.7795 101.235 66.6424 103.353 70.7489C104.711 73.3814 103.66 76.6072 101.004 77.9537C98.3492 79.3002 95.0963 78.2578 93.7382 75.6253C92.1188 72.4862 89.9949 69.5357 87.5968 67.1585C74.6742 54.3455 53.7224 54.3455 40.7996 67.1585C38.2883 69.6481 36.2501 72.445 34.6803 75.5225C33.3342 78.1609 30.0856 79.2178 27.4244 77.8836C24.7631 76.5488 23.697 73.3279 25.0431 70.6894C27.1273 66.6038 29.8396 62.8817 33.1629 59.5864C50.3033 42.5922 78.0935 42.5922 95.234 59.5864ZM84.1695 75.6033C86.6567 78.0694 88.6963 81.0885 90.1165 84.3008C91.3131 87.0094 90.0689 90.1667 87.3376 91.3536C84.6063 92.5406 81.4214 91.3071 80.2243 88.5985C79.3317 86.5784 78.0449 84.6746 76.5329 83.1749C69.716 76.4161 58.6633 76.4161 51.8464 83.1749C50.3439 84.6649 49.1178 86.4885 48.2167 88.53C47.0211 91.2391 43.8371 92.4742 41.1049 91.2889C38.3727 90.1035 37.1269 86.9468 38.3224 84.2377C39.7482 81.0071 41.7252 78.0667 44.2097 75.6033C55.2441 64.6625 73.1347 64.6625 84.1695 75.6033ZM109.463 46.6855C112.207 49.4053 114.793 52.5078 117.044 55.742C118.738 58.1756 118.121 61.51 115.667 63.1896C113.213 64.8691 109.85 64.2577 108.156 61.8243C106.267 59.1115 104.097 56.5084 101.827 54.2572C80.9165 33.5249 47.014 33.5249 26.1037 54.2572C23.9482 56.3943 21.7999 58.999 19.8373 61.804C18.1374 64.2331 14.7729 64.8365 12.3225 63.151C9.87207 61.4656 9.26366 58.1296 10.9636 55.7002C13.2749 52.397 15.8263 49.3037 18.467 46.6855C43.595 21.7715 84.3353 21.7715 109.463 46.6855ZM69.7316 90.2807C72.8971 93.4192 72.8971 98.5076 69.7316 101.646C66.5662 104.785 61.434 104.785 58.2686 101.646C55.1031 98.5076 55.1031 93.4192 58.2686 90.2807C61.434 87.1422 66.5662 87.1422 69.7316 90.2807Z" fill="#212121"/>
</svg>
